<?xml version="1.0" encoding="UTF-8" standalone="no"?><!DOCTYPE svg PUBLIC "-//W3C//DTD SVG 1.1//EN" "http://www.w3.org/Graphics/SVG/1.1/DTD/svg11.dtd"><svg width="100%" height="100%" viewBox="0 0 512 512" version="1.1" xmlns="http://www.w3.org/2000/svg" xmlns:xlink="http://www.w3.org/1999/xlink" xml:space="preserve" xmlns:serif="http://www.serif.com/" style="fill-rule:evenodd;clip-rule:evenodd;stroke-linejoin:round;stroke-miterlimit:1.41421;"><g><path d="M186.468,110.051c-66.91,-12.187 -119.812,0.568 -140.897,37.088c-15.733,27.252 -11.236,63.383 10.908,102.004c1.884,3.288 6.077,4.425 9.364,2.54c3.288,-1.885 4.425,-6.078 2.54,-9.365c-19.948,-34.789 -23.829,-65.973 -10.93,-88.316c17.515,-30.337 64.704,-41.716 126.557,-30.449c3.728,0.679 7.301,-1.793 7.98,-5.521c0.679,-3.728 -1.793,-7.301 -5.521,-7.98l-0.001,-0.001Zm-95.198,186.04c27.055,29.731 62.203,57.616 102.289,80.759c97.061,56.038 200.386,71.016 251.309,36.291c3.131,-2.134 3.939,-6.403 1.804,-9.534c-2.135,-3.131 -6.403,-3.938 -9.534,-1.803c-45.575,31.076 -143.73,16.848 -236.719,-36.838c-38.886,-22.47 -72.92,-49.472 -98.999,-78.131c-2.553,-2.799 -6.889,-3.005 -9.692,-0.456c-2.802,2.55 -3.007,6.89 -0.457,9.692l-0.001,0.02Z" style="fill:#47848f;"/><path d="M428.642,287.744c43.812,-51.757 59.109,-103.812 38.065,-140.255c-15.482,-26.817 -48.213,-40.975 -91.712,-41.541c-3.789,-0.049 -6.901,2.983 -6.95,6.771c-0.049,3.789 2.982,6.901 6.771,6.95c39.123,0.509 67.318,12.706 80.008,34.68c17.477,30.271 3.835,76.693 -36.656,124.529c-2.448,2.892 -2.088,7.221 0.804,9.67c2.893,2.448 7.222,2.088 9.67,-0.804l0,0Zm-112.612,-175.408c-39.612,8.487 -81.774,25.081 -122.268,48.46c-100.197,57.846 -165.556,143.147 -156.479,205.011c0.55,3.749 4.036,6.342 7.785,5.792c3.749,-0.551 6.342,-4.036 5.792,-7.785c-8.06,-54.934 53.894,-135.789 149.761,-191.137c39.28,-22.68 80.107,-38.748 118.283,-46.927c3.705,-0.794 6.065,-4.441 5.271,-8.146c-0.794,-3.706 -4.441,-6.065 -8.146,-5.272l0.001,0.004Z" style="fill:#47848f;"/><path d="M153.71,408.654c22.906,63.963 60.381,103.346 102.522,103.346c30.733,0 59.167,-20.95 81.339,-57.832c1.952,-3.248 0.902,-7.464 -2.346,-9.416c-3.247,-1.952 -7.463,-0.902 -9.415,2.345c-19.927,33.148 -44.402,51.181 -69.579,51.181c-35.005,0 -68.429,-35.126 -89.603,-94.248c-1.277,-3.567 -5.205,-5.424 -8.772,-4.146c-3.568,1.277 -5.424,5.205 -4.147,8.773l0.001,-0.003Zm209.233,-12.512c11.858,-37.894 18.227,-81.609 18.227,-127.164c0,-113.668 -39.784,-211.655 -96.45,-236.815c-3.463,-1.538 -7.517,0.023 -9.055,3.486c-1.538,3.464 0.023,7.518 3.487,9.055c50.539,22.441 88.296,115.435 88.296,224.277c0,44.192 -6.168,86.529 -17.601,123.065c-1.132,3.616 0.882,7.465 4.499,8.597c3.616,1.131 7.465,-0.883 8.597,-4.499l0,-0.002Z" style="fill:#47848f;"/><path d="M492.176,389.443c0,-18.136 -14.702,-32.838 -32.838,-32.838c-18.137,0 -32.839,14.702 -32.839,32.838c0,18.136 14.702,32.839 32.839,32.839c18.136,0 32.838,-14.703 32.838,-32.839Zm-13.722,0c0,10.558 -8.559,19.117 -19.116,19.117c-10.558,0 -19.117,-8.559 -19.117,-19.117c0,-10.557 8.559,-19.116 19.117,-19.116c10.557,0 19.116,8.559 19.116,19.116Z" style="fill:#47848f;"/><path d="M52.662,422.274c18.137,0 32.839,-14.703 32.839,-32.839c0,-18.136 -14.703,-32.839 -32.839,-32.839c-18.136,0 -32.838,14.703 -32.838,32.839c0,18.136 14.702,32.839 32.838,32.839Zm0,-13.723c-10.557,0 -19.116,-8.558 -19.116,-19.116c0,-10.558 8.559,-19.116 19.116,-19.116c10.558,0 19.117,8.558 19.117,19.116c0,10.557 -8.559,19.116 -19.117,19.116Z" style="fill:#47848f;"/><path d="M256.232,65.677c18.136,0 32.838,-14.703 32.838,-32.839c0,-18.136 -14.702,-32.838 -32.838,-32.838c-18.136,0 -32.838,14.702 -32.838,32.838c0,18.137 14.702,32.839 32.838,32.839Zm0,-13.722c-10.557,0 -19.116,-8.559 -19.116,-19.117c0,-10.557 8.559,-19.116 19.116,-19.116c10.558,0 19.116,8.559 19.116,19.116c0,10.558 -8.558,19.117 -19.116,19.117Z" style="fill:#47848f;"/><path d="M261.248,292.221c-12.827,2.771 -25.463,-5.38 -28.24,-18.206c-2.766,-12.827 5.38,-25.463 18.206,-28.24c12.826,-2.771 25.463,5.38 28.24,18.206c2.771,12.826 -5.38,25.463 -18.206,28.24Z" style="fill:#47848f;"/></g></svg>